<svg xmlns="http://www.w3.org/2000/svg" viewBox="0 0 168 168" width="168" height="168">
<g fill="#D4A94F"><rect x="56" y="14" width="7" height="7"/><rect x="63" y="14" width="7" height="7"/><rect x="70" y="14" width="7" height="7"/><rect x="77" y="14" width="7" height="7"/><rect x="84" y="14" width="7" height="7"/><rect x="91" y="14" width="7" height="7"/><rect x="98" y="14" width="7" height="7"/><rect x="105" y="14" width="7" height="7"/><rect x="42" y="21" width="7" height="7"/><rect x="49" y="21" width="7" height="7"/><rect x="56" y="21" width="7" height="7"/><rect x="63" y="21" width="7" height="7"/><rect x="70" y="21" width="7" height="7"/><rect x="77" y="21" width="7" height="7"/><rect x="84" y="21" width="7" height="7"/><rect x="91" y="21" width="7" height="7"/><rect x="98" y="21" width="7" height="7"/><rect x="105" y="21" width="7" height="7"/><rect x="112" y="21" width="7" height="7"/><rect x="119" y="21" width="7" height="7"/><rect x="35" y="28" width="7" height="7"/><rect x="42" y="28" width="7" height="7"/><rect x="49" y="28" width="7" height="7"/><rect x="56" y="28" width="7" height="7"/><rect x="63" y="28" width="7" height="7"/><rect x="70" y="28" width="7" height="7"/><rect x="77" y="28" width="7" height="7"/><rect x="84" y="28" width="7" height="7"/><rect x="91" y="28" width="7" height="7"/><rect x="98" y="28" width="7" height="7"/><rect x="105" y="28" width="7" height="7"/><rect x="112" y="28" width="7" height="7"/><rect x="119" y="28" width="7" height="7"/><rect x="126" y="28" width="7" height="7"/><rect x="28" y="35" width="7" height="7"/><rect x="35" y="35" width="7" height="7"/><rect x="42" y="35" width="7" height="7"/><rect x="49" y="35" width="7" height="7"/><rect x="56" y="35" width="7" height="7"/><rect x="63" y="35" width="7" height="7"/><rect x="70" y="35" width="7" height="7"/><rect x="77" y="35" width="7" height="7"/><rect x="84" y="35" width="7" height="7"/><rect x="91" y="35" width="7" height="7"/><rect x="98" y="35" width="7" height="7"/><rect x="105" y="35" width="7" height="7"/><rect x="112" y="35" width="7" height="7"/><rect x="119" y="35" width="7" height="7"/><rect x="126" y="35" width="7" height="7"/><rect x="133" y="35" width="7" height="7"/><rect x="21" y="42" width="7" height="7"/><rect x="28" y="42" width="7" height="7"/><rect x="35" y="42" width="7" height="7"/><rect x="42" y="42" width="7" height="7"/><rect x="49" y="42" width="7" height="7"/><rect x="56" y="42" width="7" height="7"/><rect x="63" y="42" width="7" height="7"/><rect x="70" y="42" width="7" height="7"/><rect x="77" y="42" width="7" height="7"/><rect x="84" y="42" width="7" height="7"/><rect x="91" y="42" width="7" height="7"/><rect x="98" y="42" width="7" height="7"/><rect x="105" y="42" width="7" height="7"/><rect x="112" y="42" width="7" height="7"/><rect x="119" y="42" width="7" height="7"/><rect x="126" y="42" width="7" height="7"/><rect x="133" y="42" width="7" height="7"/><rect x="140" y="42" width="7" height="7"/><rect x="21" y="49" width="7" height="7"/><rect x="28" y="49" width="7" height="7"/><rect x="35" y="49" width="7" height="7"/><rect x="42" y="49" width="7" height="7"/><rect x="49" y="49" width="7" height="7"/><rect x="98" y="49" width="7" height="7"/><rect x="105" y="49" width="7" height="7"/><rect x="112" y="49" width="7" height="7"/><rect x="119" y="49" width="7" height="7"/><rect x="126" y="49" width="7" height="7"/><rect x="133" y="49" width="7" height="7"/><rect x="140" y="49" width="7" height="7"/><rect x="14" y="56" width="7" height="7"/><rect x="21" y="56" width="7" height="7"/><rect x="28" y="56" width="7" height="7"/><rect x="35" y="56" width="7" height="7"/><rect x="42" y="56" width="7" height="7"/><rect x="49" y="56" width="7" height="7"/><rect x="70" y="56" width="7" height="7"/><rect x="77" y="56" width="7" height="7"/><rect x="84" y="56" width="7" height="7"/><rect x="105" y="56" width="7" height="7"/><rect x="112" y="56" width="7" height="7"/><rect x="119" y="56" width="7" height="7"/><rect x="126" y="56" width="7" height="7"/><rect x="133" y="56" width="7" height="7"/><rect x="140" y="56" width="7" height="7"/><rect x="147" y="56" width="7" height="7"/><rect x="14" y="63" width="7" height="7"/><rect x="21" y="63" width="7" height="7"/><rect x="28" y="63" width="7" height="7"/><rect x="35" y="63" width="7" height="7"/><rect x="42" y="63" width="7" height="7"/><rect x="49" y="63" width="7" height="7"/><rect x="70" y="63" width="7" height="7"/><rect x="77" y="63" width="7" height="7"/><rect x="84" y="63" width="7" height="7"/><rect x="105" y="63" width="7" height="7"/><rect x="112" y="63" width="7" height="7"/><rect x="119" y="63" width="7" height="7"/><rect x="126" y="63" width="7" height="7"/><rect x="133" y="63" width="7" height="7"/><rect x="140" y="63" width="7" height="7"/><rect x="147" y="63" width="7" height="7"/><rect x="14" y="70" width="7" height="7"/><rect x="21" y="70" width="7" height="7"/><rect x="28" y="70" width="7" height="7"/><rect x="35" y="70" width="7" height="7"/><rect x="42" y="70" width="7" height="7"/><rect x="49" y="70" width="7" height="7"/><rect x="70" y="70" width="7" height="7"/><rect x="77" y="70" width="7" height="7"/><rect x="84" y="70" width="7" height="7"/><rect x="105" y="70" width="7" height="7"/><rect x="112" y="70" width="7" height="7"/><rect x="119" y="70" width="7" height="7"/><rect x="126" y="70" width="7" height="7"/><rect x="133" y="70" width="7" height="7"/><rect x="140" y="70" width="7" height="7"/><rect x="147" y="70" width="7" height="7"/><rect x="14" y="77" width="7" height="7"/><rect x="21" y="77" width="7" height="7"/><rect x="28" y="77" width="7" height="7"/><rect x="35" y="77" width="7" height="7"/><rect x="42" y="77" width="7" height="7"/><rect x="49" y="77" width="7" height="7"/><rect x="98" y="77" width="7" height="7"/><rect x="105" y="77" width="7" height="7"/><rect x="112" y="77" width="7" height="7"/><rect x="119" y="77" width="7" height="7"/><rect x="126" y="77" width="7" height="7"/><rect x="133" y="77" width="7" height="7"/><rect x="140" y="77" width="7" height="7"/><rect x="147" y="77" width="7" height="7"/><rect x="14" y="84" width="7" height="7"/><rect x="21" y="84" width="7" height="7"/><rect x="28" y="84" width="7" height="7"/><rect x="35" y="84" width="7" height="7"/><rect x="42" y="84" width="7" height="7"/><rect x="49" y="84" width="7" height="7"/><rect x="70" y="84" width="7" height="7"/><rect x="91" y="84" width="7" height="7"/><rect x="98" y="84" width="7" height="7"/><rect x="105" y="84" width="7" height="7"/><rect x="112" y="84" width="7" height="7"/><rect x="119" y="84" width="7" height="7"/><rect x="126" y="84" width="7" height="7"/><rect x="133" y="84" width="7" height="7"/><rect x="140" y="84" width="7" height="7"/><rect x="147" y="84" width="7" height="7"/><rect x="14" y="91" width="7" height="7"/><rect x="21" y="91" width="7" height="7"/><rect x="28" y="91" width="7" height="7"/><rect x="35" y="91" width="7" height="7"/><rect x="42" y="91" width="7" height="7"/><rect x="49" y="91" width="7" height="7"/><rect x="70" y="91" width="7" height="7"/><rect x="77" y="91" width="7" height="7"/><rect x="98" y="91" width="7" height="7"/><rect x="105" y="91" width="7" height="7"/><rect x="112" y="91" width="7" height="7"/><rect x="119" y="91" width="7" height="7"/><rect x="126" y="91" width="7" height="7"/><rect x="133" y="91" width="7" height="7"/><rect x="140" y="91" width="7" height="7"/><rect x="147" y="91" width="7" height="7"/><rect x="14" y="98" width="7" height="7"/><rect x="21" y="98" width="7" height="7"/><rect x="28" y="98" width="7" height="7"/><rect x="35" y="98" width="7" height="7"/><rect x="42" y="98" width="7" height="7"/><rect x="49" y="98" width="7" height="7"/><rect x="70" y="98" width="7" height="7"/><rect x="77" y="98" width="7" height="7"/><rect x="84" y="98" width="7" height="7"/><rect x="105" y="98" width="7" height="7"/><rect x="112" y="98" width="7" height="7"/><rect x="119" y="98" width="7" height="7"/><rect x="126" y="98" width="7" height="7"/><rect x="133" y="98" width="7" height="7"/><rect x="140" y="98" width="7" height="7"/><rect x="147" y="98" width="7" height="7"/><rect x="14" y="105" width="7" height="7"/><rect x="21" y="105" width="7" height="7"/><rect x="28" y="105" width="7" height="7"/><rect x="35" y="105" width="7" height="7"/><rect x="42" y="105" width="7" height="7"/><rect x="49" y="105" width="7" height="7"/><rect x="70" y="105" width="7" height="7"/><rect x="77" y="105" width="7" height="7"/><rect x="84" y="105" width="7" height="7"/><rect x="105" y="105" width="7" height="7"/><rect x="112" y="105" width="7" height="7"/><rect x="119" y="105" width="7" height="7"/><rect x="126" y="105" width="7" height="7"/><rect x="133" y="105" width="7" height="7"/><rect x="140" y="105" width="7" height="7"/><rect x="147" y="105" width="7" height="7"/><rect x="21" y="112" width="7" height="7"/><rect x="28" y="112" width="7" height="7"/><rect x="35" y="112" width="7" height="7"/><rect x="42" y="112" width="7" height="7"/><rect x="49" y="112" width="7" height="7"/><rect x="56" y="112" width="7" height="7"/><rect x="63" y="112" width="7" height="7"/><rect x="70" y="112" width="7" height="7"/><rect x="77" y="112" width="7" height="7"/><rect x="84" y="112" width="7" height="7"/><rect x="91" y="112" width="7" height="7"/><rect x="98" y="112" width="7" height="7"/><rect x="105" y="112" width="7" height="7"/><rect x="112" y="112" width="7" height="7"/><rect x="119" y="112" width="7" height="7"/><rect x="126" y="112" width="7" height="7"/><rect x="133" y="112" width="7" height="7"/><rect x="140" y="112" width="7" height="7"/><rect x="21" y="119" width="7" height="7"/><rect x="28" y="119" width="7" height="7"/><rect x="35" y="119" width="7" height="7"/><rect x="42" y="119" width="7" height="7"/><rect x="49" y="119" width="7" height="7"/><rect x="56" y="119" width="7" height="7"/><rect x="63" y="119" width="7" height="7"/><rect x="70" y="119" width="7" height="7"/><rect x="77" y="119" width="7" height="7"/><rect x="84" y="119" width="7" height="7"/><rect x="91" y="119" width="7" height="7"/><rect x="98" y="119" width="7" height="7"/><rect x="105" y="119" width="7" height="7"/><rect x="112" y="119" width="7" height="7"/><rect x="119" y="119" width="7" height="7"/><rect x="126" y="119" width="7" height="7"/><rect x="133" y="119" width="7" height="7"/><rect x="140" y="119" width="7" height="7"/><rect x="28" y="126" width="7" height="7"/><rect x="35" y="126" width="7" height="7"/><rect x="42" y="126" width="7" height="7"/><rect x="49" y="126" width="7" height="7"/><rect x="56" y="126" width="7" height="7"/><rect x="63" y="126" width="7" height="7"/><rect x="70" y="126" width="7" height="7"/><rect x="77" y="126" width="7" height="7"/><rect x="84" y="126" width="7" height="7"/><rect x="91" y="126" width="7" height="7"/><rect x="98" y="126" width="7" height="7"/><rect x="105" y="126" width="7" height="7"/><rect x="112" y="126" width="7" height="7"/><rect x="119" y="126" width="7" height="7"/><rect x="126" y="126" width="7" height="7"/><rect x="133" y="126" width="7" height="7"/><rect x="35" y="133" width="7" height="7"/><rect x="42" y="133" width="7" height="7"/><rect x="49" y="133" width="7" height="7"/><rect x="56" y="133" width="7" height="7"/><rect x="63" y="133" width="7" height="7"/><rect x="70" y="133" width="7" height="7"/><rect x="77" y="133" width="7" height="7"/><rect x="84" y="133" width="7" height="7"/><rect x="91" y="133" width="7" height="7"/><rect x="98" y="133" width="7" height="7"/><rect x="105" y="133" width="7" height="7"/><rect x="112" y="133" width="7" height="7"/><rect x="119" y="133" width="7" height="7"/><rect x="126" y="133" width="7" height="7"/><rect x="42" y="140" width="7" height="7"/><rect x="49" y="140" width="7" height="7"/><rect x="56" y="140" width="7" height="7"/><rect x="63" y="140" width="7" height="7"/><rect x="70" y="140" width="7" height="7"/><rect x="77" y="140" width="7" height="7"/><rect x="84" y="140" width="7" height="7"/><rect x="91" y="140" width="7" height="7"/><rect x="98" y="140" width="7" height="7"/><rect x="105" y="140" width="7" height="7"/><rect x="112" y="140" width="7" height="7"/><rect x="119" y="140" width="7" height="7"/><rect x="56" y="147" width="7" height="7"/><rect x="63" y="147" width="7" height="7"/><rect x="70" y="147" width="7" height="7"/><rect x="77" y="147" width="7" height="7"/><rect x="84" y="147" width="7" height="7"/><rect x="91" y="147" width="7" height="7"/><rect x="98" y="147" width="7" height="7"/><rect x="105" y="147" width="7" height="7"/></g>
<g fill="#0A0A0A"><rect x="56" y="49" width="7" height="7"/><rect x="63" y="49" width="7" height="7"/><rect x="70" y="49" width="7" height="7"/><rect x="77" y="49" width="7" height="7"/><rect x="84" y="49" width="7" height="7"/><rect x="91" y="49" width="7" height="7"/><rect x="56" y="56" width="7" height="7"/><rect x="63" y="56" width="7" height="7"/><rect x="91" y="56" width="7" height="7"/><rect x="98" y="56" width="7" height="7"/><rect x="56" y="63" width="7" height="7"/><rect x="63" y="63" width="7" height="7"/><rect x="91" y="63" width="7" height="7"/><rect x="98" y="63" width="7" height="7"/><rect x="56" y="70" width="7" height="7"/><rect x="63" y="70" width="7" height="7"/><rect x="91" y="70" width="7" height="7"/><rect x="98" y="70" width="7" height="7"/><rect x="56" y="77" width="7" height="7"/><rect x="63" y="77" width="7" height="7"/><rect x="70" y="77" width="7" height="7"/><rect x="77" y="77" width="7" height="7"/><rect x="84" y="77" width="7" height="7"/><rect x="91" y="77" width="7" height="7"/><rect x="56" y="84" width="7" height="7"/><rect x="63" y="84" width="7" height="7"/><rect x="77" y="84" width="7" height="7"/><rect x="84" y="84" width="7" height="7"/><rect x="56" y="91" width="7" height="7"/><rect x="63" y="91" width="7" height="7"/><rect x="84" y="91" width="7" height="7"/><rect x="91" y="91" width="7" height="7"/><rect x="56" y="98" width="7" height="7"/><rect x="63" y="98" width="7" height="7"/><rect x="91" y="98" width="7" height="7"/><rect x="98" y="98" width="7" height="7"/><rect x="56" y="105" width="7" height="7"/><rect x="63" y="105" width="7" height="7"/><rect x="91" y="105" width="7" height="7"/><rect x="98" y="105" width="7" height="7"/></g>
</svg>