<svg shape-rendering="crispEdges" xmlns="http://www.w3.org/2000/svg" viewBox="0 0 600 24" width="600" height="24"><g fill="#7A828B"><rect x="0" y="0" width="6.6" height="6.6"/><rect x="0" y="6" width="6.6" height="6.6"/><rect x="0" y="12" width="6.6" height="6.6"/><rect x="0" y="18" width="6.6" height="6.6"/><rect x="6" y="0" width="6.6" height="6.6"/><rect x="6" y="12" width="6.6" height="6.6"/><rect x="12" y="0" width="6.6" height="6.6"/><rect x="12" y="6" width="6.6" height="6.6"/><rect x="24" y="0" width="6.6" height="6.6"/><rect x="24" y="6" width="6.6" height="6.6"/><rect x="24" y="12" width="6.6" height="6.6"/><rect x="24" y="18" width="6.6" height="6.6"/><rect x="30" y="0" width="6.6" height="6.6"/><rect x="30" y="12" width="6.6" height="6.6"/><rect x="36" y="0" width="6.6" height="6.6"/><rect x="36" y="6" width="6.6" height="6.6"/><rect x="36" y="18" width="6.6" height="6.6"/><rect x="48" y="0" width="6.6" height="6.6"/><rect x="48" y="6" width="6.6" height="6.6"/><rect x="48" y="12" width="6.6" height="6.6"/><rect x="48" y="18" width="6.6" height="6.6"/><rect x="60" y="0" width="6.6" height="6.6"/><rect x="60" y="6" width="6.6" height="6.6"/><rect x="60" y="12" width="6.6" height="6.6"/><rect x="66" y="18" width="6.6" height="6.6"/><rect x="72" y="0" width="6.6" height="6.6"/><rect x="72" y="6" width="6.6" height="6.6"/><rect x="72" y="12" width="6.6" height="6.6"/><rect x="84" y="6" width="6.6" height="6.6"/><rect x="84" y="12" width="6.6" height="6.6"/><rect x="84" y="18" width="6.6" height="6.6"/><rect x="90" y="0" width="6.6" height="6.6"/><rect x="90" y="12" width="6.6" height="6.6"/><rect x="96" y="0" width="6.6" height="6.6"/><rect x="96" y="6" width="6.6" height="6.6"/><rect x="96" y="12" width="6.6" height="6.6"/><rect x="96" y="18" width="6.6" height="6.6"/><rect x="108" y="0" width="6.6" height="6.6"/><rect x="114" y="0" width="6.6" height="6.6"/><rect x="114" y="6" width="6.6" height="6.6"/><rect x="114" y="12" width="6.6" height="6.6"/><rect x="114" y="18" width="6.6" height="6.6"/><rect x="120" y="0" width="6.6" height="6.6"/><rect x="132" y="0" width="6.6" height="6.6"/><rect x="132" y="6" width="6.6" height="6.6"/><rect x="132" y="12" width="6.6" height="6.6"/><rect x="132" y="18" width="6.6" height="6.6"/><rect x="138" y="0" width="6.6" height="6.6"/><rect x="138" y="12" width="6.6" height="6.6"/><rect x="138" y="18" width="6.6" height="6.6"/><rect x="144" y="0" width="6.6" height="6.6"/><rect x="144" y="18" width="6.6" height="6.6"/><rect x="174" y="0" width="6.6" height="6.6"/><rect x="174" y="6" width="6.6" height="6.6"/><rect x="174" y="12" width="6.6" height="6.6"/><rect x="174" y="18" width="6.6" height="6.6"/><rect x="180" y="18" width="6.6" height="6.6"/><rect x="186" y="0" width="6.6" height="6.6"/><rect x="186" y="6" width="6.6" height="6.6"/><rect x="186" y="12" width="6.6" height="6.6"/><rect x="186" y="18" width="6.6" height="6.6"/><rect x="192" y="18" width="6.6" height="6.6"/><rect x="198" y="0" width="6.6" height="6.6"/><rect x="198" y="6" width="6.6" height="6.6"/><rect x="198" y="12" width="6.6" height="6.6"/><rect x="198" y="18" width="6.6" height="6.6"/><rect x="210" y="0" width="6.6" height="6.6"/><rect x="210" y="6" width="6.6" height="6.6"/><rect x="210" y="12" width="6.6" height="6.6"/><rect x="210" y="18" width="6.6" height="6.6"/><rect x="216" y="0" width="6.6" height="6.6"/><rect x="216" y="18" width="6.6" height="6.6"/><rect x="222" y="0" width="6.6" height="6.6"/><rect x="222" y="6" width="6.6" height="6.6"/><rect x="222" y="12" width="6.6" height="6.6"/><rect x="222" y="18" width="6.6" height="6.6"/><rect x="234" y="0" width="6.6" height="6.6"/><rect x="234" y="6" width="6.6" height="6.6"/><rect x="234" y="12" width="6.6" height="6.6"/><rect x="234" y="18" width="6.6" height="6.6"/><rect x="240" y="0" width="6.6" height="6.6"/><rect x="240" y="12" width="6.6" height="6.6"/><rect x="246" y="0" width="6.6" height="6.6"/><rect x="246" y="6" width="6.6" height="6.6"/><rect x="246" y="18" width="6.6" height="6.6"/><rect x="258" y="0" width="6.6" height="6.6"/><rect x="258" y="6" width="6.6" height="6.6"/><rect x="258" y="12" width="6.6" height="6.6"/><rect x="258" y="18" width="6.6" height="6.6"/><rect x="264" y="6" width="6.6" height="6.6"/><rect x="270" y="0" width="6.6" height="6.6"/><rect x="270" y="12" width="6.6" height="6.6"/><rect x="270" y="18" width="6.6" height="6.6"/><rect x="300" y="0" width="6.6" height="6.6"/><rect x="300" y="6" width="6.6" height="6.6"/><rect x="300" y="12" width="6.6" height="6.6"/><rect x="300" y="18" width="6.6" height="6.6"/><rect x="312" y="0" width="6.6" height="6.6"/><rect x="312" y="6" width="6.6" height="6.6"/><rect x="312" y="12" width="6.6" height="6.6"/><rect x="312" y="18" width="6.6" height="6.6"/><rect x="318" y="6" width="6.6" height="6.6"/><rect x="324" y="12" width="6.6" height="6.6"/><rect x="330" y="0" width="6.6" height="6.6"/><rect x="330" y="6" width="6.6" height="6.6"/><rect x="330" y="12" width="6.6" height="6.6"/><rect x="330" y="18" width="6.6" height="6.6"/><rect x="342" y="0" width="6.6" height="6.6"/><rect x="348" y="0" width="6.6" height="6.6"/><rect x="348" y="6" width="6.6" height="6.6"/><rect x="348" y="12" width="6.6" height="6.6"/><rect x="348" y="18" width="6.6" height="6.6"/><rect x="354" y="0" width="6.6" height="6.6"/><rect x="366" y="0" width="6.6" height="6.6"/><rect x="366" y="6" width="6.6" height="6.6"/><rect x="366" y="12" width="6.6" height="6.6"/><rect x="366" y="18" width="6.6" height="6.6"/><rect x="372" y="0" width="6.6" height="6.6"/><rect x="372" y="18" width="6.6" height="6.6"/><rect x="378" y="0" width="6.6" height="6.6"/><rect x="378" y="6" width="6.6" height="6.6"/><rect x="378" y="12" width="6.6" height="6.6"/><rect x="378" y="18" width="6.6" height="6.6"/><rect x="408" y="0" width="6.6" height="6.6"/><rect x="408" y="6" width="6.6" height="6.6"/><rect x="408" y="12" width="6.6" height="6.6"/><rect x="408" y="18" width="6.6" height="6.6"/><rect x="414" y="0" width="6.6" height="6.6"/><rect x="414" y="12" width="6.6" height="6.6"/><rect x="414" y="18" width="6.6" height="6.6"/><rect x="420" y="0" width="6.6" height="6.6"/><rect x="420" y="18" width="6.6" height="6.6"/><rect x="432" y="0" width="6.6" height="6.6"/><rect x="432" y="6" width="6.6" height="6.6"/><rect x="432" y="12" width="6.6" height="6.6"/><rect x="438" y="18" width="6.6" height="6.6"/><rect x="444" y="0" width="6.6" height="6.6"/><rect x="444" y="6" width="6.6" height="6.6"/><rect x="444" y="12" width="6.6" height="6.6"/><rect x="456" y="0" width="6.6" height="6.6"/><rect x="456" y="6" width="6.6" height="6.6"/><rect x="456" y="12" width="6.6" height="6.6"/><rect x="456" y="18" width="6.6" height="6.6"/><rect x="468" y="0" width="6.6" height="6.6"/><rect x="468" y="6" width="6.6" height="6.6"/><rect x="468" y="12" width="6.6" height="6.6"/><rect x="468" y="18" width="6.6" height="6.6"/><rect x="474" y="0" width="6.6" height="6.6"/><rect x="474" y="18" width="6.6" height="6.6"/><rect x="480" y="6" width="6.6" height="6.6"/><rect x="480" y="12" width="6.6" height="6.6"/><rect x="492" y="0" width="6.6" height="6.6"/><rect x="492" y="6" width="6.6" height="6.6"/><rect x="492" y="12" width="6.6" height="6.6"/><rect x="492" y="18" width="6.6" height="6.6"/><rect x="498" y="0" width="6.6" height="6.6"/><rect x="498" y="12" width="6.6" height="6.6"/><rect x="498" y="18" width="6.6" height="6.6"/><rect x="504" y="0" width="6.6" height="6.6"/><rect x="504" y="18" width="6.6" height="6.6"/><rect x="516" y="0" width="6.6" height="6.6"/><rect x="516" y="6" width="6.6" height="6.6"/><rect x="516" y="12" width="6.6" height="6.6"/><rect x="516" y="18" width="6.6" height="6.6"/><rect x="522" y="6" width="6.6" height="6.6"/><rect x="528" y="12" width="6.6" height="6.6"/><rect x="534" y="0" width="6.6" height="6.6"/><rect x="534" y="6" width="6.6" height="6.6"/><rect x="534" y="12" width="6.6" height="6.6"/><rect x="534" y="18" width="6.6" height="6.6"/><rect x="546" y="0" width="6.6" height="6.6"/><rect x="546" y="6" width="6.6" height="6.6"/><rect x="546" y="12" width="6.6" height="6.6"/><rect x="546" y="18" width="6.6" height="6.6"/><rect x="552" y="0" width="6.6" height="6.6"/><rect x="552" y="18" width="6.6" height="6.6"/><rect x="558" y="0" width="6.6" height="6.6"/><rect x="558" y="18" width="6.6" height="6.6"/><rect x="570" y="0" width="6.6" height="6.6"/><rect x="570" y="6" width="6.6" height="6.6"/><rect x="570" y="12" width="6.6" height="6.6"/><rect x="570" y="18" width="6.6" height="6.6"/><rect x="576" y="0" width="6.6" height="6.6"/><rect x="576" y="12" width="6.6" height="6.6"/><rect x="576" y="18" width="6.6" height="6.6"/><rect x="582" y="0" width="6.6" height="6.6"/><rect x="582" y="18" width="6.6" height="6.6"/><rect x="594" y="18" width="6.6" height="6.6"/></g></svg>