<svg xmlns="http://www.w3.org/2000/svg" viewBox="0 0 552 72" width="552" height="72"><g fill="#FFFFFF"><rect x="8" y="8" width="8" height="8"/><rect x="8" y="16" width="8" height="8"/><rect x="8" y="24" width="8" height="8"/><rect x="8" y="32" width="8" height="8"/><rect x="8" y="40" width="8" height="8"/><rect x="8" y="48" width="8" height="8"/><rect x="8" y="56" width="8" height="8"/><rect x="16" y="8" width="8" height="8"/><rect x="16" y="32" width="8" height="8"/><rect x="24" y="8" width="8" height="8"/><rect x="24" y="32" width="8" height="8"/><rect x="32" y="8" width="8" height="8"/><rect x="32" y="32" width="8" height="8"/><rect x="32" y="40" width="8" height="8"/><rect x="40" y="16" width="8" height="8"/><rect x="40" y="24" width="8" height="8"/><rect x="40" y="48" width="8" height="8"/><rect x="40" y="56" width="8" height="8"/><rect x="72" y="8" width="8" height="8"/><rect x="72" y="16" width="8" height="8"/><rect x="72" y="24" width="8" height="8"/><rect x="72" y="32" width="8" height="8"/><rect x="72" y="40" width="8" height="8"/><rect x="72" y="48" width="8" height="8"/><rect x="72" y="56" width="8" height="8"/><rect x="80" y="8" width="8" height="8"/><rect x="80" y="32" width="8" height="8"/><rect x="80" y="56" width="8" height="8"/><rect x="88" y="8" width="8" height="8"/><rect x="88" y="32" width="8" height="8"/><rect x="88" y="56" width="8" height="8"/><rect x="96" y="8" width="8" height="8"/><rect x="96" y="32" width="8" height="8"/><rect x="96" y="56" width="8" height="8"/><rect x="104" y="8" width="8" height="8"/><rect x="104" y="56" width="8" height="8"/><rect x="136" y="8" width="8" height="8"/><rect x="136" y="16" width="8" height="8"/><rect x="136" y="24" width="8" height="8"/><rect x="136" y="32" width="8" height="8"/><rect x="136" y="40" width="8" height="8"/><rect x="136" y="48" width="8" height="8"/><rect x="136" y="56" width="8" height="8"/><rect x="144" y="8" width="8" height="8"/><rect x="144" y="56" width="8" height="8"/><rect x="152" y="8" width="8" height="8"/><rect x="152" y="56" width="8" height="8"/><rect x="160" y="8" width="8" height="8"/><rect x="160" y="56" width="8" height="8"/><rect x="168" y="16" width="8" height="8"/><rect x="168" y="24" width="8" height="8"/><rect x="168" y="32" width="8" height="8"/><rect x="168" y="40" width="8" height="8"/><rect x="168" y="48" width="8" height="8"/><rect x="200" y="8" width="8" height="8"/><rect x="200" y="16" width="8" height="8"/><rect x="200" y="24" width="8" height="8"/><rect x="200" y="32" width="8" height="8"/><rect x="200" y="40" width="8" height="8"/><rect x="200" y="48" width="8" height="8"/><rect x="200" y="56" width="8" height="8"/><rect x="208" y="8" width="8" height="8"/><rect x="208" y="32" width="8" height="8"/><rect x="208" y="56" width="8" height="8"/><rect x="216" y="8" width="8" height="8"/><rect x="216" y="32" width="8" height="8"/><rect x="216" y="56" width="8" height="8"/><rect x="224" y="8" width="8" height="8"/><rect x="224" y="32" width="8" height="8"/><rect x="224" y="56" width="8" height="8"/><rect x="232" y="8" width="8" height="8"/><rect x="232" y="56" width="8" height="8"/><rect x="264" y="8" width="8" height="8"/><rect x="264" y="16" width="8" height="8"/><rect x="264" y="24" width="8" height="8"/><rect x="264" y="32" width="8" height="8"/><rect x="264" y="40" width="8" height="8"/><rect x="264" y="48" width="8" height="8"/><rect x="264" y="56" width="8" height="8"/><rect x="272" y="16" width="8" height="8"/><rect x="272" y="24" width="8" height="8"/><rect x="280" y="32" width="8" height="8"/><rect x="288" y="40" width="8" height="8"/><rect x="288" y="48" width="8" height="8"/><rect x="296" y="8" width="8" height="8"/><rect x="296" y="16" width="8" height="8"/><rect x="296" y="24" width="8" height="8"/><rect x="296" y="32" width="8" height="8"/><rect x="296" y="40" width="8" height="8"/><rect x="296" y="48" width="8" height="8"/><rect x="296" y="56" width="8" height="8"/><rect x="328" y="8" width="8" height="8"/><rect x="336" y="8" width="8" height="8"/><rect x="344" y="8" width="8" height="8"/><rect x="344" y="16" width="8" height="8"/><rect x="344" y="24" width="8" height="8"/><rect x="344" y="32" width="8" height="8"/><rect x="344" y="40" width="8" height="8"/><rect x="344" y="48" width="8" height="8"/><rect x="344" y="56" width="8" height="8"/><rect x="352" y="8" width="8" height="8"/><rect x="360" y="8" width="8" height="8"/><rect x="392" y="8" width="8" height="8"/><rect x="392" y="56" width="8" height="8"/><rect x="400" y="8" width="8" height="8"/><rect x="400" y="16" width="8" height="8"/><rect x="400" y="24" width="8" height="8"/><rect x="400" y="32" width="8" height="8"/><rect x="400" y="40" width="8" height="8"/><rect x="400" y="48" width="8" height="8"/><rect x="400" y="56" width="8" height="8"/><rect x="408" y="8" width="8" height="8"/><rect x="408" y="56" width="8" height="8"/><rect x="440" y="16" width="8" height="8"/><rect x="440" y="24" width="8" height="8"/><rect x="440" y="32" width="8" height="8"/><rect x="440" y="40" width="8" height="8"/><rect x="440" y="48" width="8" height="8"/><rect x="440" y="56" width="8" height="8"/><rect x="448" y="8" width="8" height="8"/><rect x="448" y="32" width="8" height="8"/><rect x="456" y="8" width="8" height="8"/><rect x="456" y="32" width="8" height="8"/><rect x="464" y="8" width="8" height="8"/><rect x="464" y="32" width="8" height="8"/><rect x="472" y="16" width="8" height="8"/><rect x="472" y="24" width="8" height="8"/><rect x="472" y="32" width="8" height="8"/><rect x="472" y="40" width="8" height="8"/><rect x="472" y="48" width="8" height="8"/><rect x="472" y="56" width="8" height="8"/><rect x="504" y="8" width="8" height="8"/><rect x="504" y="16" width="8" height="8"/><rect x="504" y="24" width="8" height="8"/><rect x="504" y="32" width="8" height="8"/><rect x="504" y="40" width="8" height="8"/><rect x="504" y="48" width="8" height="8"/><rect x="504" y="56" width="8" height="8"/><rect x="512" y="56" width="8" height="8"/><rect x="520" y="56" width="8" height="8"/><rect x="528" y="56" width="8" height="8"/><rect x="536" y="56" width="8" height="8"/></g></svg>